<mxfile host="app.diagrams.net" modified="2023-09-10T04:07:32.348Z" agent="Mozilla/5.0 (Windows NT 10.0; Win64; x64) AppleWebKit/537.36 (KHTML, like Gecko) Chrome/116.0.0.0 Safari/537.36" etag="JXOR_UbqFh9O3yU2GpNK" version="21.7.4" type="github">
  <diagram name="Page-1" id="2YBvvXClWsGukQMizWep">
    <mxGraphModel dx="1114" dy="705" grid="1" gridSize="10" guides="1" tooltips="1" connect="1" arrows="1" fold="1" page="1" pageScale="1" pageWidth="850" pageHeight="1100" math="0" shadow="0">
      <root>
        <mxCell id="0" />
        <mxCell id="1" parent="0" />
        <mxCell id="aM9ryv3xv72pqoxQDRHE-1" value="Letter" style="shape=umlLifeline;perimeter=lifelinePerimeter;whiteSpace=wrap;html=1;container=0;dropTarget=0;collapsible=0;recursiveResize=0;outlineConnect=0;portConstraint=eastwest;newEdgeStyle={&quot;edgeStyle&quot;:&quot;elbowEdgeStyle&quot;,&quot;elbow&quot;:&quot;vertical&quot;,&quot;curved&quot;:0,&quot;rounded&quot;:0};" parent="1" vertex="1">
          <mxGeometry x="239" y="40" width="100" height="590" as="geometry" />
        </mxCell>
        <mxCell id="aM9ryv3xv72pqoxQDRHE-2" value="" style="html=1;points=[];perimeter=orthogonalPerimeter;outlineConnect=0;targetShapes=umlLifeline;portConstraint=eastwest;newEdgeStyle={&quot;edgeStyle&quot;:&quot;elbowEdgeStyle&quot;,&quot;elbow&quot;:&quot;vertical&quot;,&quot;curved&quot;:0,&quot;rounded&quot;:0};" parent="aM9ryv3xv72pqoxQDRHE-1" vertex="1">
          <mxGeometry x="45" y="70" width="10" height="240" as="geometry" />
        </mxCell>
        <mxCell id="7l5HRaMkyPPPgLXIsSEr-33" value="" style="html=1;points=[];perimeter=orthogonalPerimeter;outlineConnect=0;targetShapes=umlLifeline;portConstraint=eastwest;newEdgeStyle={&quot;edgeStyle&quot;:&quot;elbowEdgeStyle&quot;,&quot;elbow&quot;:&quot;vertical&quot;,&quot;curved&quot;:0,&quot;rounded&quot;:0};" parent="aM9ryv3xv72pqoxQDRHE-1" vertex="1">
          <mxGeometry x="45" y="350" width="10" height="220" as="geometry" />
        </mxCell>
        <mxCell id="aM9ryv3xv72pqoxQDRHE-5" value="Letterbox" style="shape=umlLifeline;perimeter=lifelinePerimeter;whiteSpace=wrap;html=1;container=0;dropTarget=0;collapsible=0;recursiveResize=0;outlineConnect=0;portConstraint=eastwest;newEdgeStyle={&quot;edgeStyle&quot;:&quot;elbowEdgeStyle&quot;,&quot;elbow&quot;:&quot;vertical&quot;,&quot;curved&quot;:0,&quot;rounded&quot;:0};" parent="1" vertex="1">
          <mxGeometry x="419" y="40" width="100" height="590" as="geometry" />
        </mxCell>
        <mxCell id="aM9ryv3xv72pqoxQDRHE-6" value="" style="html=1;points=[];perimeter=orthogonalPerimeter;outlineConnect=0;targetShapes=umlLifeline;portConstraint=eastwest;newEdgeStyle={&quot;edgeStyle&quot;:&quot;elbowEdgeStyle&quot;,&quot;elbow&quot;:&quot;vertical&quot;,&quot;curved&quot;:0,&quot;rounded&quot;:0};" parent="aM9ryv3xv72pqoxQDRHE-5" vertex="1">
          <mxGeometry x="45" y="70" width="10" height="500" as="geometry" />
        </mxCell>
        <mxCell id="7l5HRaMkyPPPgLXIsSEr-26" value="2: flag up" style="html=1;verticalAlign=bottom;endArrow=open;dashed=1;endSize=8;edgeStyle=elbowEdgeStyle;elbow=horizontal;curved=0;rounded=0;exitX=0.6;exitY=0.1;exitDx=0;exitDy=0;exitPerimeter=0;" parent="aM9ryv3xv72pqoxQDRHE-5" edge="1">
          <mxGeometry x="0.1402" y="-31" relative="1" as="geometry">
            <mxPoint x="54.81034482758605" y="139" as="targetPoint" />
            <Array as="points">
              <mxPoint x="110" y="139" />
            </Array>
            <mxPoint x="56" y="120" as="sourcePoint" />
            <mxPoint x="31" y="31" as="offset" />
          </mxGeometry>
        </mxCell>
        <mxCell id="aM9ryv3xv72pqoxQDRHE-7" value="2: drop letter" style="html=1;verticalAlign=bottom;endArrow=block;edgeStyle=elbowEdgeStyle;elbow=vertical;curved=0;rounded=0;" parent="1" target="aM9ryv3xv72pqoxQDRHE-6" edge="1">
          <mxGeometry x="-0.7637" relative="1" as="geometry">
            <mxPoint x="130" y="160" as="sourcePoint" />
            <Array as="points">
              <mxPoint x="215" y="160" />
            </Array>
            <mxPoint x="460" y="160" as="targetPoint" />
            <mxPoint as="offset" />
          </mxGeometry>
        </mxCell>
        <mxCell id="7l5HRaMkyPPPgLXIsSEr-2" value="Bob" style="shape=umlLifeline;perimeter=lifelinePerimeter;whiteSpace=wrap;html=1;container=0;dropTarget=0;collapsible=0;recursiveResize=0;outlineConnect=0;portConstraint=eastwest;newEdgeStyle={&quot;edgeStyle&quot;:&quot;elbowEdgeStyle&quot;,&quot;elbow&quot;:&quot;vertical&quot;,&quot;curved&quot;:0,&quot;rounded&quot;:0};" parent="1" vertex="1">
          <mxGeometry x="80" y="40" width="100" height="590" as="geometry" />
        </mxCell>
        <mxCell id="7l5HRaMkyPPPgLXIsSEr-3" value="" style="html=1;points=[];perimeter=orthogonalPerimeter;outlineConnect=0;targetShapes=umlLifeline;portConstraint=eastwest;newEdgeStyle={&quot;edgeStyle&quot;:&quot;elbowEdgeStyle&quot;,&quot;elbow&quot;:&quot;vertical&quot;,&quot;curved&quot;:0,&quot;rounded&quot;:0};" parent="7l5HRaMkyPPPgLXIsSEr-2" vertex="1">
          <mxGeometry x="45" y="70" width="10" height="60" as="geometry" />
        </mxCell>
        <mxCell id="7l5HRaMkyPPPgLXIsSEr-39" value="" style="html=1;points=[];perimeter=orthogonalPerimeter;outlineConnect=0;targetShapes=umlLifeline;portConstraint=eastwest;newEdgeStyle={&quot;edgeStyle&quot;:&quot;elbowEdgeStyle&quot;,&quot;elbow&quot;:&quot;vertical&quot;,&quot;curved&quot;:0,&quot;rounded&quot;:0};" parent="7l5HRaMkyPPPgLXIsSEr-2" vertex="1">
          <mxGeometry x="45" y="450" width="10" height="120" as="geometry" />
        </mxCell>
        <mxCell id="7l5HRaMkyPPPgLXIsSEr-6" value="Alice" style="shape=umlLifeline;perimeter=lifelinePerimeter;whiteSpace=wrap;html=1;container=0;dropTarget=0;collapsible=0;recursiveResize=0;outlineConnect=0;portConstraint=eastwest;newEdgeStyle={&quot;edgeStyle&quot;:&quot;elbowEdgeStyle&quot;,&quot;elbow&quot;:&quot;vertical&quot;,&quot;curved&quot;:0,&quot;rounded&quot;:0};" parent="1" vertex="1">
          <mxGeometry x="590" y="40" width="100" height="590" as="geometry" />
        </mxCell>
        <mxCell id="7l5HRaMkyPPPgLXIsSEr-9" value="" style="html=1;points=[];perimeter=orthogonalPerimeter;outlineConnect=0;targetShapes=umlLifeline;portConstraint=eastwest;newEdgeStyle={&quot;edgeStyle&quot;:&quot;elbowEdgeStyle&quot;,&quot;elbow&quot;:&quot;vertical&quot;,&quot;curved&quot;:0,&quot;rounded&quot;:0};" parent="7l5HRaMkyPPPgLXIsSEr-6" vertex="1">
          <mxGeometry x="45" y="180" width="10" height="230" as="geometry" />
        </mxCell>
        <mxCell id="7l5HRaMkyPPPgLXIsSEr-23" value="" style="endArrow=classic;html=1;rounded=0;" parent="1" edge="1">
          <mxGeometry width="50" height="50" relative="1" as="geometry">
            <mxPoint x="635" y="231" as="sourcePoint" />
            <mxPoint x="474" y="231" as="targetPoint" />
          </mxGeometry>
        </mxCell>
        <mxCell id="7l5HRaMkyPPPgLXIsSEr-24" value="3: pick up letter" style="text;html=1;align=center;verticalAlign=middle;resizable=0;points=[];autosize=1;strokeColor=none;fillColor=none;" parent="1" vertex="1">
          <mxGeometry x="540" y="208" width="100" height="30" as="geometry" />
        </mxCell>
        <mxCell id="7l5HRaMkyPPPgLXIsSEr-29" value="" style="endArrow=classic;html=1;rounded=0;" parent="1" target="aM9ryv3xv72pqoxQDRHE-2" edge="1">
          <mxGeometry width="50" height="50" relative="1" as="geometry">
            <mxPoint x="635" y="319" as="sourcePoint" />
            <mxPoint x="296.25" y="319" as="targetPoint" />
          </mxGeometry>
        </mxCell>
        <mxCell id="7l5HRaMkyPPPgLXIsSEr-30" value="4: read letter" style="text;html=1;align=center;verticalAlign=middle;resizable=0;points=[];autosize=1;strokeColor=none;fillColor=none;" parent="1" vertex="1">
          <mxGeometry x="550" y="290" width="90" height="30" as="geometry" />
        </mxCell>
        <mxCell id="7l5HRaMkyPPPgLXIsSEr-32" value="5: write letter" style="html=1;verticalAlign=bottom;endArrow=block;edgeStyle=elbowEdgeStyle;elbow=vertical;curved=0;rounded=0;" parent="1" target="7l5HRaMkyPPPgLXIsSEr-33" edge="1">
          <mxGeometry x="-0.7404" width="80" relative="1" as="geometry">
            <mxPoint x="635" y="397.9966666666667" as="sourcePoint" />
            <mxPoint x="300" y="398" as="targetPoint" />
            <mxPoint as="offset" />
          </mxGeometry>
        </mxCell>
        <mxCell id="7l5HRaMkyPPPgLXIsSEr-34" value="3: flag down" style="html=1;verticalAlign=bottom;endArrow=open;dashed=1;endSize=8;edgeStyle=elbowEdgeStyle;elbow=horizontal;curved=0;rounded=0;" parent="1" edge="1">
          <mxGeometry x="0.2079" y="-40" relative="1" as="geometry">
            <mxPoint x="460" y="251" as="targetPoint" />
            <Array as="points">
              <mxPoint x="410" y="241" />
            </Array>
            <mxPoint x="460" y="230" as="sourcePoint" />
            <mxPoint x="-40" y="-40" as="offset" />
          </mxGeometry>
        </mxCell>
        <mxCell id="7l5HRaMkyPPPgLXIsSEr-37" value="6: drop letter" style="html=1;verticalAlign=bottom;endArrow=block;edgeStyle=elbowEdgeStyle;elbow=vertical;curved=0;rounded=0;" parent="1" source="7l5HRaMkyPPPgLXIsSEr-9" target="aM9ryv3xv72pqoxQDRHE-6" edge="1">
          <mxGeometry x="-0.441" width="80" relative="1" as="geometry">
            <mxPoint x="300" y="390" as="sourcePoint" />
            <mxPoint x="480" y="440" as="targetPoint" />
            <Array as="points">
              <mxPoint x="480" y="440" />
            </Array>
            <mxPoint as="offset" />
          </mxGeometry>
        </mxCell>
        <mxCell id="7l5HRaMkyPPPgLXIsSEr-40" value="7: pick up letter" style="html=1;verticalAlign=bottom;endArrow=block;edgeStyle=elbowEdgeStyle;elbow=vertical;curved=0;rounded=0;" parent="1" target="aM9ryv3xv72pqoxQDRHE-6" edge="1">
          <mxGeometry x="-0.7287" width="80" relative="1" as="geometry">
            <mxPoint x="135" y="500" as="sourcePoint" />
            <mxPoint x="460" y="500" as="targetPoint" />
            <mxPoint as="offset" />
          </mxGeometry>
        </mxCell>
        <mxCell id="7l5HRaMkyPPPgLXIsSEr-41" value="7: flag down" style="html=1;verticalAlign=bottom;endArrow=open;dashed=1;endSize=8;edgeStyle=elbowEdgeStyle;elbow=horizontal;curved=0;rounded=0;" parent="1" edge="1">
          <mxGeometry x="0.1402" y="-41" relative="1" as="geometry">
            <mxPoint x="473" y="520" as="targetPoint" />
            <Array as="points">
              <mxPoint x="519" y="520" />
            </Array>
            <mxPoint x="477.9999999999999" y="500" as="sourcePoint" />
            <mxPoint x="41" y="41" as="offset" />
          </mxGeometry>
        </mxCell>
        <mxCell id="7l5HRaMkyPPPgLXIsSEr-43" value="8: read letter" style="html=1;verticalAlign=bottom;endArrow=block;edgeStyle=elbowEdgeStyle;elbow=vertical;curved=0;rounded=0;" parent="1" source="7l5HRaMkyPPPgLXIsSEr-39" target="7l5HRaMkyPPPgLXIsSEr-33" edge="1">
          <mxGeometry x="-0.5302" width="80" relative="1" as="geometry">
            <mxPoint x="140" y="560" as="sourcePoint" />
            <mxPoint x="280" y="560" as="targetPoint" />
            <mxPoint as="offset" />
            <Array as="points">
              <mxPoint x="280" y="560" />
            </Array>
          </mxGeometry>
        </mxCell>
        <mxCell id="7l5HRaMkyPPPgLXIsSEr-44" value="8: letter read" style="html=1;verticalAlign=bottom;endArrow=open;dashed=1;endSize=8;edgeStyle=elbowEdgeStyle;elbow=horizontal;curved=0;rounded=0;" parent="1" edge="1">
          <mxGeometry x="0.0841" y="40" relative="1" as="geometry">
            <mxPoint x="295" y="580" as="targetPoint" />
            <Array as="points">
              <mxPoint x="336" y="580" />
            </Array>
            <mxPoint x="294.9999999999999" y="560" as="sourcePoint" />
            <mxPoint as="offset" />
          </mxGeometry>
        </mxCell>
        <mxCell id="7l5HRaMkyPPPgLXIsSEr-45" value="1: write letter" style="html=1;verticalAlign=bottom;endArrow=block;edgeStyle=elbowEdgeStyle;elbow=horizontal;curved=0;rounded=0;" parent="1" source="7l5HRaMkyPPPgLXIsSEr-3" target="aM9ryv3xv72pqoxQDRHE-2" edge="1">
          <mxGeometry x="-0.5302" width="80" relative="1" as="geometry">
            <mxPoint x="170" y="120.01999999999998" as="sourcePoint" />
            <mxPoint x="280" y="120" as="targetPoint" />
            <Array as="points">
              <mxPoint x="200" y="120" />
            </Array>
            <mxPoint as="offset" />
          </mxGeometry>
        </mxCell>
        <mxCell id="7l5HRaMkyPPPgLXIsSEr-46" value="4: letter read" style="html=1;verticalAlign=bottom;endArrow=open;dashed=1;endSize=8;edgeStyle=elbowEdgeStyle;elbow=horizontal;curved=0;rounded=0;" parent="1" edge="1">
          <mxGeometry x="0.1552" y="-40" relative="1" as="geometry">
            <mxPoint x="280" y="320" as="sourcePoint" />
            <mxPoint x="278.5" y="340" as="targetPoint" />
            <Array as="points">
              <mxPoint x="220" y="330" />
            </Array>
            <mxPoint x="-40" y="-40" as="offset" />
          </mxGeometry>
        </mxCell>
        <mxCell id="7l5HRaMkyPPPgLXIsSEr-52" value="6: flag up" style="html=1;verticalAlign=bottom;endArrow=open;dashed=1;endSize=8;edgeStyle=elbowEdgeStyle;elbow=horizontal;curved=0;rounded=0;" parent="1" edge="1">
          <mxGeometry x="0.157" y="-30" relative="1" as="geometry">
            <mxPoint x="460" y="461" as="targetPoint" />
            <Array as="points">
              <mxPoint x="410" y="451" />
            </Array>
            <mxPoint x="460" y="440" as="sourcePoint" />
            <mxPoint as="offset" />
          </mxGeometry>
        </mxCell>
      </root>
    </mxGraphModel>
  </diagram>
</mxfile>
